HIERARCHY
ROOT SpineBase
{
  OFFSET 0.000000 0.000000 0.000000
  CHANNELS 6 Xposition Yposition Zposition Zrotation Xrotation Yrotation
  JOINT SpineMid
  {
    OFFSET 0.000000 29.332304 0.000000
    CHANNELS 3 Zrotation Xrotation Yrotation
    JOINT SpineShoulder
    {
      OFFSET 0.152221 21.872795 -1.241248
      CHANNELS 3 Zrotation Xrotation Yrotation
      JOINT Neck
      {
        OFFSET 0.035728 7.257086 -0.795989
        CHANNELS 3 Zrotation Xrotation Yrotation
        JOINT Head
        {
          OFFSET -5.579095 12.562540 0.945731
          CHANNELS 3 Zrotation Xrotation Yrotation
          End Site
          {
            OFFSET 0 0 0
          }
        }
      }
      JOINT ShoulderLeft
      {
        OFFSET -13.535945 -5.461451 10.425543
        CHANNELS 3 Zrotation Xrotation Yrotation
        JOINT ElbowLeft
        {
          OFFSET -1.454582 -26.441615 2.227344
          CHANNELS 3 Zrotation Xrotation Yrotation
          JOINT WristLeft
          {
            OFFSET -0.623442 -19.375335 -4.416764
            CHANNELS 3 Zrotation Xrotation Yrotation
            JOINT HandLeft
            {
              OFFSET -1.565010 -4.317643 -2.333342
              CHANNELS 3 Zrotation Xrotation Yrotation
              JOINT HandTipLeft
              {
                OFFSET -0.005902 -5.939764 -2.549107
                CHANNELS 3 Zrotation Xrotation Yrotation
                End Site
                {
                  OFFSET 0 0 0
                }
              }
              JOINT ThumbLeft
              {
                OFFSET 2.555861 1.699557 -4.479101
                CHANNELS 3 Zrotation Xrotation Yrotation
                End Site
                {
                  OFFSET 0 0 0
                }
              }
            }
          }
        }
      }
      JOINT ShoulderRight
      {
        OFFSET 11.534294 -2.834067 -11.349252
        CHANNELS 3 Zrotation Xrotation Yrotation
        JOINT ElbowRight
        {
          OFFSET 5.475386 -24.220086 -2.965182
          CHANNELS 3 Zrotation Xrotation Yrotation
          JOINT WristRight
          {
            OFFSET -5.048076 -19.176121 -3.303797
            CHANNELS 3 Zrotation Xrotation Yrotation
            JOINT HandRight
            {
              OFFSET -1.326391 -6.280077 -0.392663
              CHANNELS 3 Zrotation Xrotation Yrotation
              JOINT HandTipRight
              {
                OFFSET -1.629739 -7.084969 -0.417177
                CHANNELS 3 Zrotation Xrotation Yrotation
                End Site
                {
                  OFFSET 0 0 0
                }
              }
              JOINT ThumbRight
              {
                OFFSET 1.957473 -0.607485 -2.440194
                CHANNELS 3 Zrotation Xrotation Yrotation
                End Site
                {
                  OFFSET 0 0 0
                }
              }
            }
          }
        }
      }
    }
  }
  JOINT HipLeft
  {
    OFFSET -5.550330 0.149080 0.837797
    CHANNELS 3 Zrotation Xrotation Yrotation
    JOINT KneeLeft
    {
      OFFSET -2.969832 -28.912331 1.176966
      CHANNELS 3 Zrotation Xrotation Yrotation
      JOINT AnkleLeft
      {
        OFFSET 3.850729 -30.679843 7.085650
        CHANNELS 3 Zrotation Xrotation Yrotation
        JOINT FootLeft
        {
          OFFSET -6.538314 -3.569142 -10.620919
          CHANNELS 3 Zrotation Xrotation Yrotation
          End Site
          {
            OFFSET 0 0 0
          }
        }
      }
    }
  }
  JOINT HipRight
  {
    OFFSET 5.197950 1.729242 -7.474046
    CHANNELS 3 Zrotation Xrotation Yrotation
    JOINT KneeRight
    {
      OFFSET 11.692268 -26.269440 -2.262840
      CHANNELS 3 Zrotation Xrotation Yrotation
      JOINT AnkleRight
      {
        OFFSET 8.705209 -33.168746 2.907734
        CHANNELS 3 Zrotation Xrotation Yrotation
        JOINT FootRight
        {
          OFFSET -6.825198 -3.537874 -10.579552
          CHANNELS 3 Zrotation Xrotation Yrotation
          End Site
          {
            OFFSET 0 0 0
          }
        }
      }
    }
  }
}
MOTION
Frames: 13
Frame Time: 0.033333
2.813074 63.390910 332.597089 -14.404990 13.856728 -9.006807 -1.272023 0.694361 9.763709 0.113174 0.793351 -0.672018 -50.858538 7.306818 21.387953 0.000000 0.000000 0.000000 -25.884813 -19.163136 -12.025574 35.538294 3.608556 1.920757 13.348481 49.130796 -22.789782 -9.382426 -55.012932 12.654820 0.000000 0.000000 0.000000 0.000000 0.000000 0.000000 5.646260 -18.224079 1.562331 23.110393 17.914477 -9.553042 -21.985976 7.706329 -0.866042 20.114901 -2.861897 3.843726 0.000000 0.000000 0.000000 0.000000 0.000000 0.000000 14.712859 -18.952511 12.480900 -2.300298 -1.396381 -2.973735 16.078201 11.607552 -38.132257 0.000000 0.000000 0.000000 5.375389 -15.068043 9.987251 4.565695 -8.395255 -4.110160 16.856346 13.337469 -37.813940 0.000000 0.000000 0.000000
3.485071 63.288189 331.859691 -14.587922 15.058905 -11.041805 -1.489518 1.002639 11.979845 0.345596 0.738071 -0.629465 -51.571117 7.968123 22.514625 0.000000 0.000000 0.000000 -27.658913 -18.549708 -13.018038 37.901521 6.095573 2.293904 17.451590 36.445178 -23.226220 -11.522324 -45.734164 14.376412 0.000000 0.000000 0.000000 0.000000 0.000000 0.000000 7.049407 -16.589371 2.744732 21.085662 17.796179 -10.043335 -20.814519 4.680079 -0.932256 18.633153 -3.385494 3.726053 0.000000 0.000000 0.000000 0.000000 0.000000 0.000000 15.420846 -20.424829 14.834569 -2.260979 -0.882669 -3.168478 16.955550 11.679368 -38.881904 0.000000 0.000000 0.000000 5.772875 -16.289210 12.066774 4.726204 -8.767648 -4.345364 17.544464 13.696196 -38.623112 0.000000 0.000000 0.000000
4.125959 63.109315 331.296941 -14.894543 16.161587 -12.671067 -1.779795 1.377880 13.800257 0.362359 0.893612 -0.617157 -51.518884 8.355522 23.316783 0.000000 0.000000 0.000000 -27.143819 -16.759895 -12.830401 37.941779 6.312979 3.532526 19.025417 22.296268 -19.626686 -12.908167 -34.931801 14.151698 0.000000 0.000000 0.000000 0.000000 0.000000 0.000000 6.588207 -14.402178 3.888650 20.272431 16.633151 -10.452287 -16.830276 5.182183 -1.100116 13.847618 -5.425730 3.751119 0.000000 0.000000 0.000000 0.000000 0.000000 0.000000 16.129329 -21.511154 16.747148 -1.942062 -0.976956 -3.344851 17.608317 11.939464 -39.999226 0.000000 0.000000 0.000000 6.221936 -17.526949 13.698172 5.013411 -8.857019 -4.467431 18.256147 13.822555 -39.737517 0.000000 0.000000 0.000000
4.518420 62.850475 330.857505 -15.049139 17.162800 -14.847514 -1.831393 1.520107 16.150778 0.220419 1.020114 -0.636222 -51.716949 8.170888 23.151267 0.000000 0.000000 0.000000 -25.636215 -14.555475 -11.965806 36.605408 5.707353 4.867691 21.546769 7.025693 -15.030927 -14.690771 -23.731227 12.966708 0.000000 0.000000 0.000000 0.000000 0.000000 0.000000 5.059910 -11.740243 4.912401 20.830441 14.858239 -10.979206 -13.281953 7.379826 -1.354298 10.152985 -10.267499 4.546408 0.000000 0.000000 0.000000 0.000000 0.000000 0.000000 17.403222 -22.661714 19.364624 -1.751072 -0.214354 -3.416424 18.159403 11.695695 -41.262112 0.000000 0.000000 0.000000 7.082332 -18.241877 16.091675 4.958444 -9.145222 -4.645343 18.945935 13.796496 -41.039951 0.000000 0.000000 0.000000
4.778798 62.560462 330.610206 -15.698028 17.868767 -15.919766 -2.021409 2.030984 17.473372 0.532349 1.211129 -0.541597 -51.478645 7.829089 22.696979 0.000000 0.000000 0.000000 -24.797637 -13.159453 -11.668910 35.530782 5.279702 5.974213 26.501067 -8.403873 -9.828144 -17.510214 -9.204530 11.209202 0.000000 0.000000 0.000000 0.000000 0.000000 0.000000 3.281312 -9.068540 6.009015 21.519926 12.204237 -11.240786 -8.750407 11.422830 -1.775292 4.410242 -15.860620 4.360584 0.000000 0.000000 0.000000 0.000000 0.000000 0.000000 18.739851 -23.027081 20.855772 -1.741342 -0.281744 -3.499013 18.636536 11.703963 -42.561174 0.000000 0.000000 0.000000 8.211456 -18.397053 17.583164 4.692357 -9.614503 -4.886184 19.595019 13.777207 -42.338472 0.000000 0.000000 0.000000
5.072901 62.347546 330.409022 -16.283629 18.611011 -16.919817 -2.029497 2.239518 18.702119 0.650624 1.350921 -0.498795 -50.824270 7.271071 21.900568 0.000000 0.000000 0.000000 -23.541674 -11.002852 -10.895328 33.898932 3.475782 7.205398 32.075669 -22.837664 -2.653008 -21.143002 0.858451 9.931824 0.000000 0.000000 0.000000 0.000000 0.000000 0.000000 -0.390943 -6.305928 6.911008 26.107012 9.574403 -11.676058 -8.661002 13.189636 -2.200056 2.711219 -19.573894 4.569554 0.000000 0.000000 0.000000 0.000000 0.000000 0.000000 19.811259 -23.365655 22.198258 -1.652102 -0.370003 -3.578341 19.202354 11.623679 -43.909025 0.000000 0.000000 0.000000 9.333447 -18.568535 19.007393 4.394244 -10.018202 -5.097481 20.232728 13.703335 -43.709864 0.000000 0.000000 0.000000
5.180762 62.169480 330.435611 -16.805815 18.976578 -17.642897 -1.838693 2.464335 19.635694 0.815984 1.377350 -0.448764 -50.332497 6.988697 21.403253 0.000000 0.000000 0.000000 -23.804684 -9.315516 -10.695968 33.419171 2.161778 8.109035 34.659750 -30.846724 2.883894 -21.860167 9.195896 8.161711 0.000000 0.000000 0.000000 0.000000 0.000000 0.000000 -2.816998 -4.813471 7.372797 29.840608 8.964060 -12.111303 -9.774689 13.962034 -2.576272 3.587649 -19.356229 4.978510 0.000000 0.000000 0.000000 0.000000 0.000000 0.000000 20.549927 -23.053126 23.085050 -1.626177 -0.684455 -3.601699 19.480900 11.538514 -44.552346 0.000000 0.000000 0.000000 10.375161 -18.037898 20.274660 3.882710 -10.602180 -5.370483 20.551088 13.640641 -44.370629 0.000000 0.000000 0.000000
5.348801 62.110364 330.559530 -17.084707 19.145740 -16.508445 -1.378622 2.424234 18.609840 0.682499 1.212799 -0.508056 -50.439022 6.979093 21.418268 0.000000 0.000000 0.000000 -24.007048 -7.582170 -10.242566 32.802693 0.309624 8.775128 37.321202 -32.853341 4.085871 -25.589466 9.294249 10.360544 0.000000 0.000000 0.000000 0.000000 0.000000 0.000000 -4.351663 -3.549709 7.718100 33.272263 8.872036 -12.452059 -11.857180 13.477619 -2.834222 4.736127 -13.954967 4.281626 0.000000 0.000000 0.000000 0.000000 0.000000 0.000000 19.963152 -22.769205 21.826494 -1.557541 -1.493678 -3.592794 19.658383 11.460552 -44.940348 0.000000 0.000000 0.000000 10.336722 -18.104399 19.316536 3.604572 -10.837358 -5.517111 20.855526 13.635195 -44.784984 0.000000 0.000000 0.000000
5.463866 62.089003 330.776907 -17.160087 19.024219 -16.199950 -0.832665 2.114741 18.306873 0.359011 1.040583 -0.618735 -51.326786 8.314501 23.656067 0.000000 0.000000 0.000000 -22.981709 -5.693549 -9.127843 30.981288 -3.066358 9.080333 37.190752 -27.830535 -0.092362 -25.621108 3.510784 11.476378 0.000000 0.000000 0.000000 0.000000 0.000000 0.000000 -4.718389 -2.572745 7.953356 35.366980 8.391297 -12.453533 -13.728941 14.257080 -3.272166 6.534305 -9.215243 4.012977 0.000000 0.000000 0.000000 0.000000 0.000000 0.000000 19.504444 -22.287650 21.325909 -1.440555 -1.932761 -3.571277 19.746527 11.372836 -45.155590 0.000000 0.000000 0.000000 10.255551 -17.647388 19.191644 3.325898 -11.202621 -5.723217 21.045988 13.649283 -45.025567 0.000000 0.000000 0.000000
5.535943 62.068301 331.203138 -17.593758 18.594534 -15.567673 -0.660203 2.117441 17.688320 -0.018845 0.830305 -0.777412 -50.709978 7.892786 23.396748 0.000000 0.000000 0.000000 -22.010237 -4.466807 -8.289440 30.063656 -3.783155 9.293976 41.252445 -31.429309 1.988512 -25.792800 7.581997 10.756624 0.000000 0.000000 0.000000 0.000000 0.000000 0.000000 -2.983689 -3.443625 7.737370 36.115537 9.712237 -12.924691 -15.628354 12.486176 -3.150413 9.054680 -5.057413 3.930992 0.000000 0.000000 0.000000 0.000000 0.000000 0.000000 19.216272 -21.461473 20.497235 -1.331779 -2.130570 -3.489723 19.637776 11.112147 -44.758052 0.000000 0.000000 0.000000 10.311910 -16.800382 18.803532 3.128761 -11.362852 -5.855198 21.021621 13.483221 -44.670179 0.000000 0.000000 0.000000
5.582089 62.060681 331.759125 -17.982483 17.853402 -14.972368 -0.636557 2.108200 17.023268 -0.215523 0.477340 -0.909724 -49.785138 7.001045 22.295028 0.000000 0.000000 0.000000 -21.448758 -3.241682 -7.485585 29.844921 -4.091151 9.411547 45.708412 -36.597072 6.096521 -27.831169 11.294558 11.049230 0.000000 0.000000 0.000000 0.000000 0.000000 0.000000 -0.050200 -5.740290 6.930914 35.203795 12.252289 -13.562948 -16.485315 8.725704 -2.369293 11.263493 0.179488 2.866306 0.000000 0.000000 0.000000 0.000000 0.000000 0.000000 18.900336 -20.450309 19.640480 -1.277383 -1.994263 -3.371684 19.415373 10.754374 -43.917582 0.000000 0.000000 0.000000 10.250132 -15.697524 18.370276 3.031614 -11.278262 -5.883395 20.810627 13.195247 -43.889232 0.000000 0.000000 0.000000
5.591830 62.112800 332.376899 -18.273514 16.891164 -14.386566 -0.758500 2.076358 16.290787 -0.242703 0.075655 -1.005045 -48.878954 5.552612 20.243918 0.000000 0.000000 0.000000 -20.931598 -2.739161 -6.839290 30.057708 -3.144640 9.234382 50.112768 -41.461948 11.183903 -29.804977 17.126209 11.020623 0.000000 0.000000 0.000000 0.000000 0.000000 0.000000 2.691156 -8.470695 5.902234 33.595917 15.499502 -14.141655 -15.068912 3.954436 -0.994332 11.777044 4.562187 0.979984 0.000000 0.000000 0.000000 0.000000 0.000000 0.000000 18.470813 -19.311772 18.722110 -1.251270 -1.663250 -3.232986 19.203897 10.275172 -43.034657 0.000000 0.000000 0.000000 10.051452 -14.419970 17.879475 2.958119 -11.218178 -5.916190 20.567628 12.957306 -43.090942 0.000000 0.000000 0.000000
5.592423 62.194337 333.036125 -18.713920 15.886291 -13.632701 -0.805215 2.121022 15.421606 -0.352055 -0.259742 -1.118868 -47.620042 3.039302 16.603215 0.000000 0.000000 0.000000 -18.818853 -1.811131 -5.658014 28.374896 -3.466925 8.964107 58.590718 -47.777038 19.948868 -33.775961 27.985361 11.547749 0.000000 0.000000 0.000000 0.000000 0.000000 0.000000 4.658194 -10.356553 5.178060 31.602585 17.191099 -13.840048 -13.023352 -3.684631 1.166846 10.468070 11.824091 -2.719913 0.000000 0.000000 0.000000 0.000000 0.000000 0.000000 18.139967 -18.181786 17.660525 -1.139869 -1.208085 -3.069763 18.993234 9.654033 -42.320174 0.000000 0.000000 0.000000 10.073852 -13.143307 17.220245 2.754972 -11.021904 -5.896919 20.448794 12.622045 -42.470238 0.000000 0.000000 0.000000
